<?xml version="1.0" encoding="utf-8"?>
<!-- Generator: Adobe Illustrator 24.0.0, SVG Export Plug-In . SVG Version: 6.00 Build 0)  -->
<svg version="1.1" id="Layer_1" xmlns="http://www.w3.org/2000/svg" xmlns:xlink="http://www.w3.org/1999/xlink" x="0px" y="0px"
	 viewBox="0 0 1920 296.1" style="enable-background:new 0 0 1920 296.1;" xml:space="preserve">
<style type="text/css">
	.st0{fill:#4672C4;stroke:#4672C4;stroke-miterlimit:10;}
	.st1{fill:#4672C4;stroke:#4672C4;stroke-width:4;stroke-miterlimit:10;}
	.st2{fill:none;stroke:#4672C4;stroke-width:5;stroke-miterlimit:10;}
	.st3{fill:#4672C4;}
	.st4{font-family:'TimesNewRomanPS-BoldMT';}
	.st5{font-size:24px;}
</style>
<circle class="st0" cx="132.4" cy="183.1" r="44.3"/>
<line class="st1" x1="170" y1="182.6" x2="1813.4" y2="182.6"/>
<circle class="st0" cx="317.4" cy="182.6" r="47.9"/>
<circle class="st0" cx="614.2" cy="182.6" r="47.9"/>
<circle class="st0" cx="1184.3" cy="183.1" r="47.9"/>
<line class="st2" x1="1764.3" y1="231.8" x2="1861.7" y2="134.4"/>
<line class="st2" x1="1763.7" y1="132.9" x2="1862.4" y2="231.6"/>
<text transform="matrix(1 0 0 1 29.4044 269.798)" class="st3 st4 st5">-4.6 Miliard rokov</text>
<text transform="matrix(1 0 0 1 229.5986 269.7978)" class="st3 st4 st5">-3.8 Miliard rokov</text>
<text transform="matrix(1 0 0 1 1731.2166 269.7979)" class="st3 st4 st5">+1 Biliard rokov</text>
<text transform="matrix(1 0 0 1 566.2356 269.7979)" class="st3 st4 st5">Súčasnosť</text>
<text transform="matrix(1 0 0 1 1106.6772 269.7978)" class="st3 st4 st5">+ 7 miliard rokov</text>
<text transform="matrix(1 0 0 1 94.1788 98.5557)" class="st3 st4 st5">ŠTART</text>
<text transform="matrix(1 0 0 1 1766.8115 106.558)" class="st3 st4 st5">KONIEC</text>
<text transform="matrix(1 0 0 1 566.2358 30.6011)" class="st3 st4 st5">ETAPA 3</text>
<text transform="matrix(1 0 0 1 83.8762 30.6009)" class="st3 st4 st5">ETAPA 1</text>
<text transform="matrix(1 0 0 1 269.4207 30.6013)" class="st3 st4 st5">ETAPA 2</text>
<text transform="matrix(1 0 0 1 1136.371 30.6014)" class="st3 st4 st5">ETAPA 4</text>
</svg>
